<svg width="42" height="30" viewBox="0 0 42 30" fill="none" xmlns="http://www.w3.org/2000/svg">
<rect y="0.0341797" width="42" height="29.6129" rx="2" fill="#222425"/>
<path d="M14.774 12.126C14.774 13.17 14.414 14.04 13.694 14.736C12.986 15.42 11.9 15.762 10.436 15.762H8.024V21H6.386V8.454H10.436C11.852 8.454 12.926 8.796 13.658 9.48C14.402 10.164 14.774 11.046 14.774 12.126ZM10.436 14.412C11.348 14.412 12.02 14.214 12.452 13.818C12.884 13.422 13.1 12.858 13.1 12.126C13.1 10.578 12.212 9.804 10.436 9.804H8.024V14.412H10.436ZM20.3018 21.162C19.5458 21.162 18.8678 21.036 18.2678 20.784C17.6678 20.52 17.1938 20.16 16.8458 19.704C16.4978 19.236 16.3058 18.702 16.2698 18.102H17.9618C18.0098 18.594 18.2378 18.996 18.6458 19.308C19.0658 19.62 19.6118 19.776 20.2838 19.776C20.9078 19.776 21.3998 19.638 21.7598 19.362C22.1198 19.086 22.2998 18.738 22.2998 18.318C22.2998 17.886 22.1078 17.568 21.7238 17.364C21.3398 17.148 20.7458 16.938 19.9418 16.734C19.2098 16.542 18.6098 16.35 18.1418 16.158C17.6858 15.954 17.2898 15.66 16.9538 15.276C16.6298 14.88 16.4678 14.364 16.4678 13.728C16.4678 13.224 16.6178 12.762 16.9178 12.342C17.2178 11.922 17.6438 11.592 18.1958 11.352C18.7478 11.1 19.3778 10.974 20.0858 10.974C21.1778 10.974 22.0598 11.25 22.7318 11.802C23.4038 12.354 23.7638 13.11 23.8118 14.07H22.1738C22.1378 13.554 21.9278 13.14 21.5438 12.828C21.1718 12.516 20.6678 12.36 20.0318 12.36C19.4438 12.36 18.9758 12.486 18.6278 12.738C18.2798 12.99 18.1058 13.32 18.1058 13.728C18.1058 14.052 18.2078 14.322 18.4118 14.538C18.6278 14.742 18.8918 14.91 19.2038 15.042C19.5278 15.162 19.9718 15.3 20.5358 15.456C21.2438 15.648 21.8198 15.84 22.2638 16.032C22.7078 16.212 23.0858 16.488 23.3978 16.86C23.7218 17.232 23.8898 17.718 23.9018 18.318C23.9018 18.858 23.7518 19.344 23.4518 19.776C23.1518 20.208 22.7258 20.55 22.1738 20.802C21.6338 21.042 21.0098 21.162 20.3018 21.162ZM36.2941 21.684V23.196H26.7181V21.684H36.2941Z" fill="#E2E5E9"/>
</svg>
