<svg width="94" height="142" viewBox="0 0 94 142" fill="none" xmlns="http://www.w3.org/2000/svg">
<path d="M14.625 43.8801L3.78 33.5301L14.625 23.2251H19.8L8.91 33.5301L19.8 43.8801H14.625ZM43.7259 7.61006L31.3959 57.6501H27.3459L39.6309 7.61006H43.7259ZM50.5923 23.2251H55.7673L66.6573 33.5301L55.7673 43.8801H50.5923L61.4823 33.5301L50.5923 23.2251Z" fill="#222425" fill-opacity="0.1"/>
<path d="M44.725 105.595C47.785 105.025 49.315 103.45 49.315 100.87C49.315 99.7301 49.165 97.7801 48.865 95.0201C48.565 92.0801 48.415 89.9501 48.415 88.6301C48.415 86.4701 49.015 84.8201 50.215 83.6801C51.445 82.5401 53.08 81.9701 55.12 81.9701H57.73V85.5251H55.885C54.715 85.5251 53.845 85.7951 53.275 86.3351C52.705 86.8451 52.42 87.7001 52.42 88.9001C52.42 89.7701 52.48 90.8501 52.6 92.1401C52.72 93.4001 52.795 94.2551 52.825 94.7051C53.125 97.5851 53.275 99.6851 53.275 101.005C53.275 102.595 52.87 103.93 52.06 105.01C51.28 106.06 50.065 106.765 48.415 107.125V107.215C50.065 107.575 51.28 108.295 52.06 109.375C52.87 110.455 53.275 111.79 53.275 113.38C53.275 114.7 53.125 116.8 52.825 119.68C52.795 120.13 52.72 121 52.6 122.29C52.48 123.55 52.42 124.615 52.42 125.485C52.42 126.685 52.705 127.54 53.275 128.05C53.845 128.59 54.715 128.86 55.885 128.86H57.73V132.415H55.12C53.08 132.415 51.445 131.845 50.215 130.705C49.015 129.565 48.415 127.915 48.415 125.755C48.415 124.435 48.565 122.305 48.865 119.365C49.165 116.605 49.315 114.655 49.315 113.515C49.315 110.935 47.785 109.36 44.725 108.79V105.595ZM88.8482 108.79C85.7882 109.36 84.2582 110.935 84.2582 113.515C84.2582 114.655 84.4082 116.605 84.7082 119.365C85.0082 122.305 85.1582 124.435 85.1582 125.755C85.1582 127.915 84.5432 129.565 83.3132 130.705C82.1132 131.845 80.4932 132.415 78.4532 132.415H75.8432V128.86H77.6882C78.8582 128.86 79.7282 128.59 80.2982 128.05C80.8682 127.54 81.1532 126.685 81.1532 125.485C81.1532 124.615 81.0932 123.55 80.9732 122.29C80.8532 121 80.7782 120.13 80.7482 119.68C80.4482 116.8 80.2982 114.7 80.2982 113.38C80.2982 111.79 80.6882 110.455 81.4682 109.375C82.2782 108.295 83.5082 107.575 85.1582 107.215V107.125C83.5082 106.765 82.2782 106.06 81.4682 105.01C80.6882 103.93 80.2982 102.595 80.2982 101.005C80.2982 99.6851 80.4482 97.5851 80.7482 94.7051C80.7782 94.2551 80.8532 93.4001 80.9732 92.1401C81.0932 90.8501 81.1532 89.7701 81.1532 88.9001C81.1532 87.7001 80.8682 86.8451 80.2982 86.3351C79.7282 85.7951 78.8582 85.5251 77.6882 85.5251H75.8432V81.9701H78.4532C80.4932 81.9701 82.1132 82.5401 83.3132 83.6801C84.5432 84.8201 85.1582 86.4701 85.1582 88.6301C85.1582 89.9501 85.0082 92.0801 84.7082 95.0201C84.4082 97.7801 84.2582 99.7301 84.2582 100.87C84.2582 103.45 85.7882 105.025 88.8482 105.595V108.79Z" fill="#222425" fill-opacity="0.1"/>
</svg>
