<svg width="75" height="142" viewBox="0 0 75 142" fill="none" xmlns="http://www.w3.org/2000/svg">
<path d="M4.725 31.595C7.785 31.025 9.315 29.45 9.315 26.87C9.315 25.73 9.165 23.78 8.865 21.02C8.565 18.08 8.415 15.95 8.415 14.63C8.415 12.47 9.015 10.82 10.215 9.68C11.445 8.54 13.08 7.97 15.12 7.97H17.73V11.525H15.885C14.715 11.525 13.845 11.795 13.275 12.335C12.705 12.845 12.42 13.7 12.42 14.9C12.42 15.77 12.48 16.85 12.6 18.14C12.72 19.4 12.795 20.255 12.825 20.705C13.125 23.585 13.275 25.685 13.275 27.005C13.275 28.595 12.87 29.93 12.06 31.01C11.28 32.06 10.065 32.765 8.415 33.125V33.215C10.065 33.575 11.28 34.295 12.06 35.375C12.87 36.455 13.275 37.79 13.275 39.38C13.275 40.7 13.125 42.8 12.825 45.68C12.795 46.13 12.72 47 12.6 48.29C12.48 49.55 12.42 50.615 12.42 51.485C12.42 52.685 12.705 53.54 13.275 54.05C13.845 54.59 14.715 54.86 15.885 54.86H17.73V58.415H15.12C13.08 58.415 11.445 57.845 10.215 56.705C9.015 55.565 8.415 53.915 8.415 51.755C8.415 50.435 8.565 48.305 8.865 45.365C9.165 42.605 9.315 40.655 9.315 39.515C9.315 36.935 7.785 35.36 4.725 34.79V31.595ZM48.8482 34.79C45.7882 35.36 44.2582 36.935 44.2582 39.515C44.2582 40.655 44.4082 42.605 44.7082 45.365C45.0082 48.305 45.1582 50.435 45.1582 51.755C45.1582 53.915 44.5432 55.565 43.3132 56.705C42.1132 57.845 40.4932 58.415 38.4532 58.415H35.8432V54.86H37.6882C38.8582 54.86 39.7282 54.59 40.2982 54.05C40.8682 53.54 41.1532 52.685 41.1532 51.485C41.1532 50.615 41.0932 49.55 40.9732 48.29C40.8532 47 40.7782 46.13 40.7482 45.68C40.4482 42.8 40.2982 40.7 40.2982 39.38C40.2982 37.79 40.6882 36.455 41.4682 35.375C42.2782 34.295 43.5082 33.575 45.1582 33.215V33.125C43.5082 32.765 42.2782 32.06 41.4682 31.01C40.6882 29.93 40.2982 28.595 40.2982 27.005C40.2982 25.685 40.4482 23.585 40.7482 20.705C40.7782 20.255 40.8532 19.4 40.9732 18.14C41.0932 16.85 41.1532 15.77 41.1532 14.9C41.1532 13.7 40.8682 12.845 40.2982 12.335C39.7282 11.795 38.8582 11.525 37.6882 11.525H35.8432V7.97H38.4532C40.4932 7.97 42.1132 8.54 43.3132 9.68C44.5432 10.82 45.1582 12.47 45.1582 14.63C45.1582 15.95 45.0082 18.08 44.7082 21.02C44.4082 23.78 44.2582 25.73 44.2582 26.87C44.2582 29.45 45.7882 31.025 48.8482 31.595V34.79Z" fill="#222425" fill-opacity="0.1"/>
<path d="M56.5 102.715H51.325V124H47.23V102.715H44.035V99.34H47.23V97.585C47.23 94.825 47.935 92.815 49.345 91.555C50.785 90.265 53.08 89.62 56.23 89.62V93.04C54.43 93.04 53.155 93.4 52.405 94.12C51.685 94.81 51.325 95.965 51.325 97.585V99.34H56.5V102.715ZM65.3696 103.345C66.0896 101.935 67.1096 100.84 68.4296 100.06C69.7796 99.28 71.4146 98.89 73.3346 98.89V103.12H72.2546C67.6646 103.12 65.3696 105.61 65.3696 110.59V124H61.2746V99.34H65.3696V103.345Z" fill="#222425" fill-opacity="0.1"/>
</svg>
