<svg width="33" height="33" viewBox="0 0 33 33" fill="none" xmlns="http://www.w3.org/2000/svg">
<g clip-path="url(#clip0_29_63)">
<path d="M32.9903 0H0.00966797C0.0043285 0 0 0.0043285 0 0.00966797V32.9903C0 32.9957 0.0043285 33 0.00966797 33H32.9903C32.9957 33 33 32.9957 33 32.9903V0.00966797C33 0.0043285 32.9957 0 32.9903 0Z" fill="url(#paint0_linear_29_63)"/>
<path d="M21.5918 32.1621C22.4941 32.1621 22.3652 33.2578 22.3652 33.2578H10.6348C10.6348 33.2578 10.5059 32.1621 11.4082 32.1621C12.2461 32.1621 12.4395 31.7754 12.4395 31.3887L12.375 28.166C7.79883 29.1973 6.83204 26.3613 6.83204 26.3613C6.0586 24.4277 5.02735 23.9766 5.02735 23.9766C3.48047 22.9453 5.0918 22.9453 5.0918 22.9453C6.76758 23.0742 7.66993 24.6211 7.66993 24.6211C9.0879 27.1348 11.4727 26.4258 12.4395 26.0391C12.5684 24.9434 13.0195 24.2344 13.4707 23.7832C9.79688 23.3965 5.99415 21.9785 5.99415 15.6621C5.99415 13.8574 6.63868 12.375 7.66993 11.2148C7.47657 10.8281 6.96094 9.15234 7.86329 6.89648C7.86329 6.89648 9.2168 6.4453 12.375 8.57226C15.082 7.79882 17.918 7.79882 20.625 8.57226C23.7832 6.4453 25.1367 6.89648 25.1367 6.89648C26.0391 9.15234 25.5234 10.8281 25.3301 11.2148C26.3613 12.375 27.0059 13.8574 27.0059 15.6621C27.0059 21.9785 23.1387 23.3965 19.4648 23.7832C20.1094 24.2988 20.625 25.3301 20.625 26.8769L20.5606 31.3887C20.5606 31.7754 20.7539 32.1621 21.5918 32.1621Z" fill="#222425"/>
</g>
<defs>
<linearGradient id="paint0_linear_29_63" x1="16.5" y1="0" x2="16.5" y2="33" gradientUnits="userSpaceOnUse">
<stop stop-color="#E2E5E9"/>
<stop offset="1" stop-color="#E2E5E9" stop-opacity="0"/>
</linearGradient>
<clipPath id="clip0_29_63">
<rect width="33" height="33" rx="3" fill="white"/>
</clipPath>
</defs>
</svg>
