<svg width="33" height="33" viewBox="0 0 33 33" fill="none" xmlns="http://www.w3.org/2000/svg">
<g clip-path="url(#clip0_29_66)">
<path fill-rule="evenodd" clip-rule="evenodd" d="M17.8708 14.821V14.7728C17.8609 14.7889 17.8473 14.8051 17.8387 14.821H17.8708Z" fill="url(#paint0_linear_29_66)"/>
<path fill-rule="evenodd" clip-rule="evenodd" d="M0 0V33H33V0H0ZM10.2642 27.4155H5.36819V12.6855H10.2642V27.4155ZM7.81621 10.675H7.78387C6.14148 10.675 5.07692 9.54353 5.07692 8.12924C5.07692 6.68391 6.1726 5.58447 7.84827 5.58447C9.52431 5.58447 10.5543 6.68391 10.5863 8.12924C10.5863 9.54353 9.52431 10.675 7.81621 10.675ZM27.9231 27.4155H23.0257V19.5349C23.0257 17.5556 22.3182 16.2045 20.5457 16.2045C19.192 16.2045 18.3876 17.1142 18.0332 17.9954C17.9044 18.3101 17.8708 18.7477 17.8708 19.1891V27.4156H12.9725C12.9725 27.4156 13.0381 14.0674 12.9725 12.6856H17.8708V14.7728C18.5216 13.7714 19.6829 12.3398 22.2845 12.3398C25.5074 12.3398 27.9231 14.4445 27.9231 18.9686V27.4155Z" fill="url(#paint1_linear_29_66)"/>
</g>
<defs>
<linearGradient id="paint0_linear_29_66" x1="17.8547" y1="14.7728" x2="17.8547" y2="14.821" gradientUnits="userSpaceOnUse">
<stop stop-color="#E2E5E9"/>
<stop offset="1" stop-color="#E2E5E9" stop-opacity="0"/>
</linearGradient>
<linearGradient id="paint1_linear_29_66" x1="16.5" y1="0" x2="16.5" y2="33" gradientUnits="userSpaceOnUse">
<stop stop-color="#E2E5E9"/>
<stop offset="1" stop-color="#E2E5E9" stop-opacity="0"/>
</linearGradient>
<clipPath id="clip0_29_66">
<rect width="33" height="33" rx="3" fill="white"/>
</clipPath>
</defs>
</svg>
