<svg width="33" height="33" viewBox="0 0 33 33" fill="none" xmlns="http://www.w3.org/2000/svg">
<g clip-path="url(#clip0_29_85)">
<path fill-rule="evenodd" clip-rule="evenodd" d="M0 0V33H33V0H0ZM27.9096 7.30207L24.0324 25.9515C23.9411 26.3918 23.4248 26.5913 23.0605 26.3266L17.7678 22.484C17.4465 22.2507 17.0083 22.2631 16.7008 22.5139L13.7663 24.9059C13.4258 25.1844 12.9126 25.0292 12.7822 24.6098L10.7446 18.0569L5.48032 16.0922C4.94558 15.8919 4.94101 15.1369 5.47423 14.9315L27.0789 6.59703C27.5369 6.41991 28.0094 6.82114 27.9096 7.30207Z" fill="url(#paint0_linear_29_85)"/>
<path fill-rule="evenodd" clip-rule="evenodd" d="M22.7422 10.6745L12.4539 17.011C12.0596 17.2543 11.874 17.7306 12.0012 18.1764L13.1135 22.085C13.1927 22.3619 13.5945 22.3336 13.633 22.0475L13.9221 19.9041C13.9767 19.5005 14.1691 19.1285 14.4676 18.8508L22.9583 10.9582C23.1173 10.811 22.927 10.561 22.7422 10.6745Z" fill="url(#paint1_linear_29_85)"/>
</g>
<defs>
<linearGradient id="paint0_linear_29_85" x1="16.5" y1="0" x2="16.5" y2="33" gradientUnits="userSpaceOnUse">
<stop stop-color="#E2E5E9"/>
<stop offset="1" stop-color="#E2E5E9" stop-opacity="0"/>
</linearGradient>
<linearGradient id="paint1_linear_29_85" x1="17.4896" y1="10.6458" x2="17.4896" y2="22.2781" gradientUnits="userSpaceOnUse">
<stop stop-color="#E2E5E9"/>
<stop offset="1" stop-color="#E2E5E9" stop-opacity="0"/>
</linearGradient>
<clipPath id="clip0_29_85">
<rect width="33" height="33" rx="3" fill="white"/>
</clipPath>
</defs>
</svg>
