<svg width="101" height="140" viewBox="0 0 101 140" fill="none" xmlns="http://www.w3.org/2000/svg">
<path d="M7.56 16.7001V50.0001H3.465V16.7001H7.56ZM37.0392 36.7251C37.0392 37.5051 36.9942 38.3301 36.9042 39.2001H17.1942C17.3442 41.6301 18.1692 43.5351 19.6692 44.9151C21.1992 46.2651 23.0442 46.9401 25.2042 46.9401C26.9742 46.9401 28.4442 46.5351 29.6142 45.7251C30.8142 44.8851 31.6542 43.7751 32.1342 42.3951H36.5442C35.8842 44.7651 34.5642 46.7001 32.5842 48.2001C30.6042 49.6701 28.1442 50.4051 25.2042 50.4051C22.8642 50.4051 20.7642 49.8801 18.9042 48.8301C17.0742 47.7801 15.6342 46.2951 14.5842 44.3751C13.5342 42.4251 13.0092 40.1751 13.0092 37.6251C13.0092 35.0751 13.5192 32.8401 14.5392 30.9201C15.5592 29.0001 16.9842 27.5301 18.8142 26.5101C20.6742 25.4601 22.8042 24.9351 25.2042 24.9351C27.5442 24.9351 29.6142 25.4451 31.4142 26.4651C33.2142 27.4851 34.5942 28.8951 35.5542 30.6951C36.5442 32.4651 37.0392 34.4751 37.0392 36.7251ZM32.8092 35.8701C32.8092 34.3101 32.4642 32.9751 31.7742 31.8651C31.0842 30.7251 30.1392 29.8701 28.9392 29.3001C27.7692 28.7001 26.4642 28.4001 25.0242 28.4001C22.9542 28.4001 21.1842 29.0601 19.7142 30.3801C18.2742 31.7001 17.4492 33.5301 17.2392 35.8701H32.8092ZM47.4395 28.7151V43.2501C47.4395 44.4501 47.6945 45.3051 48.2045 45.8151C48.7145 46.2951 49.5995 46.5351 50.8595 46.5351H53.8745V50.0001H50.1845C47.9045 50.0001 46.1945 49.4751 45.0545 48.4251C43.9145 47.3751 43.3445 45.6501 43.3445 43.2501V28.7151H40.1495V25.3401H43.3445V19.1301H47.4395V25.3401H53.8745V28.7151H47.4395Z" fill="#222425" fill-opacity="0.1"/>
<path d="M30.775 90.6351L30.28 113.135H26.86L26.365 90.6351H30.775ZM28.75 122.27C27.97 122.27 27.31 122 26.77 121.46C26.23 120.92 25.96 120.26 25.96 119.48C25.96 118.7 26.23 118.04 26.77 117.5C27.31 116.96 27.97 116.69 28.75 116.69C29.5 116.69 30.13 116.96 30.64 117.5C31.18 118.04 31.45 118.7 31.45 119.48C31.45 120.26 31.18 120.92 30.64 121.46C30.13 122 29.5 122.27 28.75 122.27ZM63.3483 98.9601V102.425H39.9483V98.9601H63.3483ZM63.3483 108.635V112.1H39.9483V108.635H63.3483ZM95.8679 98.9601V102.425H72.4679V98.9601H95.8679ZM95.8679 108.635V112.1H72.4679V108.635H95.8679Z" fill="#222425" fill-opacity="0.1"/>
</svg>
