<svg width="91" height="142" viewBox="0 0 91 142" fill="none" xmlns="http://www.w3.org/2000/svg">
<path d="M28.665 51.7101V55.4901H4.725V51.7101H28.665ZM53.5679 31.7751V35.2401H35.6129V31.7751H53.5679ZM85.7331 26.9601V30.4251H62.3331V26.9601H85.7331ZM85.7331 36.6351V40.1001H62.3331V36.6351H85.7331Z" fill="#222425" fill-opacity="0.1"/>
<path d="M47.47 92.6351V112.48C47.47 115.27 48.145 117.34 49.495 118.69C50.875 120.04 52.78 120.715 55.21 120.715C57.61 120.715 59.485 120.04 60.835 118.69C62.215 117.34 62.905 115.27 62.905 112.48V92.6351H67V112.435C67 115.045 66.475 117.25 65.425 119.05C64.375 120.82 62.95 122.14 61.15 123.01C59.38 123.88 57.385 124.315 55.165 124.315C52.945 124.315 50.935 123.88 49.135 123.01C47.365 122.14 45.955 120.82 44.905 119.05C43.885 117.25 43.375 115.045 43.375 112.435V92.6351H47.47ZM77.9262 92.6351V124H73.8312V92.6351H77.9262Z" fill="#222425" fill-opacity="0.1"/>
</svg>
