<svg width="98" height="142" viewBox="0 0 98 142" fill="none" xmlns="http://www.w3.org/2000/svg">
<path d="M4.84666 50.2701C4.06666 50.2701 3.40666 50.0001 2.86666 49.4601C2.32666 48.9201 2.05666 48.2601 2.05666 47.4801C2.05666 46.7001 2.32666 46.0401 2.86666 45.5001C3.40666 44.9601 4.06666 44.6901 4.84666 44.6901C5.59666 44.6901 6.22666 44.9601 6.73666 45.5001C7.27666 46.0401 7.54666 46.7001 7.54666 47.4801C7.54666 48.2601 7.27666 48.9201 6.73666 49.4601C6.22666 50.0001 5.59666 50.2701 4.84666 50.2701ZM28.2899 7.61006L15.9599 57.6501H11.9099L24.1949 7.61006H28.2899ZM35.6963 50.2701C34.9163 50.2701 34.2563 50.0001 33.7163 49.4601C33.1763 48.9201 32.9063 48.2601 32.9063 47.4801C32.9063 46.7001 33.1763 46.0401 33.7163 45.5001C34.2563 44.9601 34.9163 44.6901 35.6963 44.6901C36.4463 44.6901 37.0763 44.9601 37.5863 45.5001C38.1263 46.0401 38.3963 46.7001 38.3963 47.4801C38.3963 48.2601 38.1263 48.9201 37.5863 49.4601C37.0763 50.0001 36.4463 50.2701 35.6963 50.2701ZM45.1445 50.2701C44.3645 50.2701 43.7045 50.0001 43.1645 49.4601C42.6245 48.9201 42.3545 48.2601 42.3545 47.4801C42.3545 46.7001 42.6245 46.0401 43.1645 45.5001C43.7045 44.9601 44.3645 44.6901 45.1445 44.6901C45.8945 44.6901 46.5245 44.9601 47.0345 45.5001C47.5745 46.0401 47.8445 46.7001 47.8445 47.4801C47.8445 48.2601 47.5745 48.9201 47.0345 49.4601C46.5245 50.0001 45.8945 50.2701 45.1445 50.2701ZM68.5878 7.61006L56.2578 57.6501H52.2078L64.4928 7.61006H68.5878Z" fill="#222425" fill-opacity="0.1"/>
<path d="M61.7017 117.88L50.8567 107.53L61.7017 97.2251H66.8767L55.9867 107.53L66.8767 117.88H61.7017ZM76.2676 97.2251H81.4426L92.3326 107.53L81.4426 117.88H76.2676L87.1576 107.53L76.2676 97.2251Z" fill="#222425" fill-opacity="0.1"/>
</svg>
