<svg width="72" height="142" viewBox="0 0 72 142" fill="none" xmlns="http://www.w3.org/2000/svg">
<path d="M4.725 31.595C7.785 31.025 9.315 29.45 9.315 26.87C9.315 25.73 9.165 23.78 8.865 21.02C8.565 18.08 8.415 15.95 8.415 14.63C8.415 12.47 9.015 10.82 10.215 9.68C11.445 8.54 13.08 7.97 15.12 7.97H17.73V11.525H15.885C14.715 11.525 13.845 11.795 13.275 12.335C12.705 12.845 12.42 13.7 12.42 14.9C12.42 15.77 12.48 16.85 12.6 18.14C12.72 19.4 12.795 20.255 12.825 20.705C13.125 23.585 13.275 25.685 13.275 27.005C13.275 28.595 12.87 29.93 12.06 31.01C11.28 32.06 10.065 32.765 8.415 33.125V33.215C10.065 33.575 11.28 34.295 12.06 35.375C12.87 36.455 13.275 37.79 13.275 39.38C13.275 40.7 13.125 42.8 12.825 45.68C12.795 46.13 12.72 47 12.6 48.29C12.48 49.55 12.42 50.615 12.42 51.485C12.42 52.685 12.705 53.54 13.275 54.05C13.845 54.59 14.715 54.86 15.885 54.86H17.73V58.415H15.12C13.08 58.415 11.445 57.845 10.215 56.705C9.015 55.565 8.415 53.915 8.415 51.755C8.415 50.435 8.565 48.305 8.865 45.365C9.165 42.605 9.315 40.655 9.315 39.515C9.315 36.935 7.785 35.36 4.725 34.79V31.595ZM48.8482 34.79C45.7882 35.36 44.2582 36.935 44.2582 39.515C44.2582 40.655 44.4082 42.605 44.7082 45.365C45.0082 48.305 45.1582 50.435 45.1582 51.755C45.1582 53.915 44.5432 55.565 43.3132 56.705C42.1132 57.845 40.4932 58.415 38.4532 58.415H35.8432V54.86H37.6882C38.8582 54.86 39.7282 54.59 40.2982 54.05C40.8682 53.54 41.1532 52.685 41.1532 51.485C41.1532 50.615 41.0932 49.55 40.9732 48.29C40.8532 47 40.7782 46.13 40.7482 45.68C40.4482 42.8 40.2982 40.7 40.2982 39.38C40.2982 37.79 40.6882 36.455 41.4682 35.375C42.2782 34.295 43.5082 33.575 45.1582 33.215V33.125C43.5082 32.765 42.2782 32.06 41.4682 31.01C40.6882 29.93 40.2982 28.595 40.2982 27.005C40.2982 25.685 40.4482 23.585 40.7482 20.705C40.7782 20.255 40.8532 19.4 40.9732 18.14C41.0932 16.85 41.1532 15.77 41.1532 14.9C41.1532 13.7 40.8682 12.845 40.2982 12.335C39.7282 11.795 38.8582 11.525 37.6882 11.525H35.8432V7.97H38.4532C40.4932 7.97 42.1132 8.54 43.3132 9.68C44.5432 10.82 45.1582 12.47 45.1582 14.63C45.1582 15.95 45.0082 18.08 44.7082 21.02C44.4082 23.78 44.2582 25.73 44.2582 26.87C44.2582 29.45 45.7882 31.025 48.8482 31.595V34.79Z" fill="#222425" fill-opacity="0.1"/>
<path d="M67.715 115.405C67.715 116.845 67.355 118.225 66.635 119.545C65.915 120.835 64.85 121.915 63.44 122.785C62.06 123.655 60.395 124.15 58.445 124.27V127.915H56.015V124.27C53.285 124.03 51.065 123.16 49.355 121.66C47.645 120.13 46.775 118.195 46.745 115.855H51.11C51.23 117.115 51.695 118.21 52.505 119.14C53.345 120.07 54.515 120.655 56.015 120.895V109.645C54.005 109.135 52.385 108.61 51.155 108.07C49.925 107.53 48.875 106.69 48.005 105.55C47.135 104.41 46.7 102.88 46.7 100.96C46.7 98.53 47.54 96.52 49.22 94.93C50.93 93.34 53.195 92.455 56.015 92.275V88.54H58.445V92.275C60.995 92.485 63.05 93.31 64.61 94.75C66.17 96.16 67.07 98.005 67.31 100.285H62.945C62.795 99.235 62.33 98.29 61.55 97.45C60.77 96.58 59.735 96.01 58.445 95.74V106.72C60.425 107.23 62.03 107.755 63.26 108.295C64.52 108.805 65.57 109.63 66.41 110.77C67.28 111.91 67.715 113.455 67.715 115.405ZM50.885 100.735C50.885 102.205 51.32 103.33 52.19 104.11C53.06 104.89 54.335 105.535 56.015 106.045V95.65C54.455 95.8 53.21 96.31 52.28 97.18C51.35 98.02 50.885 99.205 50.885 100.735ZM58.445 120.94C60.065 120.76 61.325 120.175 62.225 119.185C63.155 118.195 63.62 117.01 63.62 115.63C63.62 114.16 63.17 113.035 62.27 112.255C61.37 111.445 60.095 110.8 58.445 110.32V120.94Z" fill="#222425" fill-opacity="0.1"/>
</svg>
