<svg width="31" height="31" viewBox="0 0 31 31" fill="none" xmlns="http://www.w3.org/2000/svg">
<g clip-path="url(#clip0_323_306)">
<path d="M17.6597 19.5902L14.5102 21.9209C13.485 22.6795 12.3439 22.9648 11.0866 22.777C9.82941 22.5891 8.82149 21.9826 8.06287 20.9575C7.30426 19.9324 7.01888 18.7912 7.20673 17.5339C7.39459 16.2767 8.00108 15.2688 9.02623 14.5102L12.1758 12.1795L12.9984 13.2911L9.84882 15.6218C9.12834 16.1549 8.70223 16.8599 8.57047 17.7366C8.43872 18.6133 8.63898 19.4113 9.17125 20.1306C9.70352 20.8498 10.4092 21.276 11.2883 21.4092C12.1673 21.5424 12.9671 21.3424 13.6876 20.8093L16.8371 18.4786L17.6597 19.5902ZM13.0132 18.1544L12.1906 17.0428L17.9339 12.7927L18.7565 13.9043L13.0132 18.1544ZM18.7713 18.7676L17.9487 17.656L21.0983 15.3253C21.8187 14.7921 22.2449 14.0872 22.3766 13.2105C22.5084 12.3338 22.3081 11.5358 21.7758 10.8165C21.2436 10.0973 20.5379 9.67103 19.6588 9.53785C18.7797 9.40467 17.98 9.60467 17.2595 10.1378L14.11 12.4685L13.2874 11.3569L16.4369 9.02623C17.462 8.26761 18.6032 7.98223 19.8604 8.17008C21.1177 8.35794 22.1256 8.96444 22.8842 9.98958C23.6428 11.0147 23.9282 12.1559 23.7403 13.4131C23.5525 14.6704 22.946 15.6783 21.9209 16.4369L18.7713 18.7676Z" fill="#E2E5E9"/>
</g>
<defs>
<clipPath id="clip0_323_306">
<rect width="22.1258" height="22.1258" fill="white" transform="translate(0 13.1615) rotate(-36.5018)"/>
</clipPath>
</defs>
</svg>
