<svg width="32" height="32" viewBox="0 0 32 32" fill="none" xmlns="http://www.w3.org/2000/svg">
<rect width="32" height="32" rx="9" fill="url(#paint0_linear_333_522)"/>
<g clip-path="url(#clip0_333_522)">
<path d="M18.6596 20.5902L15.5101 22.9209C14.485 23.6795 13.3438 23.9648 12.0865 23.777C10.8293 23.5891 9.8214 22.9826 9.06278 21.9575C8.30417 20.9324 8.01879 19.7912 8.20664 18.5339C8.39449 17.2767 9.00099 16.2688 10.0261 15.5102L13.1757 13.1795L13.9983 14.2911L10.8487 16.6218C10.1283 17.1549 9.70213 17.8599 9.57038 18.7366C9.43863 19.6133 9.63889 20.4113 10.1712 21.1306C10.7034 21.8498 11.4091 22.276 12.2882 22.4092C13.1672 22.5424 13.967 22.3424 14.6875 21.8093L17.837 19.4786L18.6596 20.5902ZM14.0131 19.1544L13.1905 18.0428L18.9338 13.7927L19.7564 14.9043L14.0131 19.1544ZM19.7712 19.7676L18.9486 18.656L22.0982 16.3253C22.8186 15.7921 23.2448 15.0872 23.3765 14.2105C23.5083 13.3338 23.308 12.5358 22.7757 11.8165C22.2435 11.0973 21.5378 10.671 20.6587 10.5378C19.7797 10.4047 18.9799 10.6047 18.2594 11.1378L15.1099 13.4685L14.2873 12.3569L17.4368 10.0262C18.4619 9.26761 19.6031 8.98223 20.8604 9.17008C22.1176 9.35794 23.1255 9.96444 23.8841 10.9896C24.6427 12.0147 24.9281 13.1559 24.7403 14.4131C24.5524 15.6704 23.9459 16.6783 22.9208 17.4369L19.7712 19.7676Z" fill="#E2E5E9"/>
</g>
<defs>
<linearGradient id="paint0_linear_333_522" x1="16.1468" y1="0" x2="16.1468" y2="32" gradientUnits="userSpaceOnUse">
<stop stop-color="#0360E2"/>
<stop offset="1" stop-color="#3185FC" stop-opacity="0.6"/>
</linearGradient>
<clipPath id="clip0_333_522">
<rect width="22.1258" height="22.1258" fill="white" transform="translate(1 14.1615) rotate(-36.5018)"/>
</clipPath>
</defs>
</svg>
