<svg width="42" height="30" viewBox="0 0 42 30" fill="none" xmlns="http://www.w3.org/2000/svg">
<rect width="42" height="29.6129" rx="2" fill="#222425"/>
<path d="M14.774 12.0918C14.774 13.1358 14.414 14.0058 13.694 14.7018C12.986 15.3858 11.9 15.7278 10.436 15.7278H8.024V20.9658H6.386V8.41982H10.436C11.852 8.41982 12.926 8.76182 13.658 9.44582C14.402 10.1298 14.774 11.0118 14.774 12.0918ZM10.436 14.3778C11.348 14.3778 12.02 14.1798 12.452 13.7838C12.884 13.3878 13.1 12.8238 13.1 12.0918C13.1 10.5438 12.212 9.76982 10.436 9.76982H8.024V14.3778H10.436ZM20.3018 21.1278C19.5458 21.1278 18.8678 21.0018 18.2678 20.7498C17.6678 20.4858 17.1938 20.1258 16.8458 19.6698C16.4978 19.2018 16.3058 18.6678 16.2698 18.0678H17.9618C18.0098 18.5598 18.2378 18.9618 18.6458 19.2738C19.0658 19.5858 19.6118 19.7418 20.2838 19.7418C20.9078 19.7418 21.3998 19.6038 21.7598 19.3278C22.1198 19.0518 22.2998 18.7038 22.2998 18.2838C22.2998 17.8518 22.1078 17.5338 21.7238 17.3298C21.3398 17.1138 20.7458 16.9038 19.9418 16.6998C19.2098 16.5078 18.6098 16.3158 18.1418 16.1238C17.6858 15.9198 17.2898 15.6258 16.9538 15.2418C16.6298 14.8458 16.4678 14.3298 16.4678 13.6938C16.4678 13.1898 16.6178 12.7278 16.9178 12.3078C17.2178 11.8878 17.6438 11.5578 18.1958 11.3178C18.7478 11.0658 19.3778 10.9398 20.0858 10.9398C21.1778 10.9398 22.0598 11.2158 22.7318 11.7678C23.4038 12.3198 23.7638 13.0758 23.8118 14.0358H22.1738C22.1378 13.5198 21.9278 13.1058 21.5438 12.7938C21.1718 12.4818 20.6678 12.3258 20.0318 12.3258C19.4438 12.3258 18.9758 12.4518 18.6278 12.7038C18.2798 12.9558 18.1058 13.2858 18.1058 13.6938C18.1058 14.0178 18.2078 14.2878 18.4118 14.5038C18.6278 14.7078 18.8918 14.8758 19.2038 15.0078C19.5278 15.1278 19.9718 15.2658 20.5358 15.4218C21.2438 15.6138 21.8198 15.8058 22.2638 15.9978C22.7078 16.1778 23.0858 16.4538 23.3978 16.8258C23.7218 17.1978 23.8898 17.6838 23.9018 18.2838C23.9018 18.8238 23.7518 19.3098 23.4518 19.7418C23.1518 20.1738 22.7258 20.5158 22.1738 20.7678C21.6338 21.0078 21.0098 21.1278 20.3018 21.1278ZM36.2941 21.6498V23.1618H26.7181V21.6498H36.2941Z" fill="#E2E5E9"/>
</svg>
