<svg width="21" height="21" viewBox="0 0 21 21" fill="none" xmlns="http://www.w3.org/2000/svg">
<path fill-rule="evenodd" clip-rule="evenodd" d="M10.5 3.09615C7.85605 3.09615 5.68146 5.21609 5.73689 7.79337C5.75199 8.4952 6.01589 9.30081 6.35826 10.0449C6.69542 10.7778 7.08153 11.3937 7.28615 11.7015C7.41302 11.8922 7.52425 12.1047 7.60334 12.3394L8.26875 14.3141H12.7312L13.3967 12.3394C13.4758 12.1047 13.587 11.8922 13.7139 11.7015C13.9184 11.3937 14.3046 10.7779 14.6417 10.0449C14.9841 9.30081 15.248 8.4952 15.2631 7.79338C15.3185 5.21609 13.144 3.09615 10.5 3.09615ZM12.5413 15.6602H8.45875V15.8846C8.45875 16.9998 9.37265 17.9038 10.5 17.9038C11.6273 17.9038 12.5413 16.9998 12.5413 15.8845V15.6602ZM7.09791 15.0964L6.31233 12.7651C6.27643 12.6585 6.22216 12.5509 6.14921 12.4412C5.92261 12.1005 5.49619 11.421 5.11964 10.6025C4.74827 9.79527 4.39725 8.79331 4.37636 7.82201C4.3039 4.45295 7.13137 1.75 10.5 1.75C13.8687 1.75 16.6961 4.45296 16.6236 7.82201C16.6028 8.79331 16.2517 9.79527 15.8804 10.6025C15.5039 11.421 15.0774 12.1005 14.8508 12.4412C14.7779 12.5509 14.7236 12.6585 14.6877 12.7651L13.9021 15.0964V15.8845C13.9021 17.7431 12.379 19.25 10.5 19.25C8.62108 19.25 7.09791 17.7432 7.09791 15.8846V15.0964Z" fill="#E2E5E9"/>
</svg>
