<svg width="24" height="24" viewBox="0 0 24 24" fill="none" xmlns="http://www.w3.org/2000/svg">
<g clip-path="url(#clip0_323_242)">
<path d="M23.993 0H0.00703125C0.003148 0 0 0.003148 0 0.00703125V23.993C0 23.9969 0.003148 24 0.00703125 24H23.993C23.9969 24 24 23.9969 24 23.993V0.00703125C24 0.003148 23.9969 0 23.993 0Z" fill="#E2E5E9"/>
<path d="M15.7031 23.3907C16.3593 23.3907 16.2656 24.1876 16.2656 24.1876H7.73435C7.73435 24.1876 7.6406 23.3907 8.29685 23.3907C8.90622 23.3907 9.04685 23.1094 9.04685 22.8282L8.99997 20.4844C5.67185 21.2344 4.96872 19.1719 4.96872 19.1719C4.40622 17.7657 3.65622 17.4376 3.65622 17.4376C2.53122 16.6876 3.7031 16.6876 3.7031 16.6876C4.92185 16.7813 5.5781 17.9063 5.5781 17.9063C6.60935 19.7344 8.34372 19.2188 9.04685 18.9376C9.1406 18.1407 9.46872 17.6251 9.79685 17.2969C7.12497 17.0157 4.35935 15.9844 4.35935 11.3907C4.35935 10.0782 4.8281 9.00006 5.5781 8.15631C5.43747 7.87506 5.06247 6.65631 5.71872 5.01569C5.71872 5.01569 6.7031 4.68756 8.99997 6.23444C10.9687 5.67194 13.0312 5.67194 15 6.23444C17.2968 4.68756 18.2812 5.01569 18.2812 5.01569C18.9375 6.65631 18.5625 7.87506 18.4218 8.15631C19.1718 9.00006 19.6406 10.0782 19.6406 11.3907C19.6406 15.9844 16.8281 17.0157 14.1562 17.2969C14.625 17.6719 15 18.4219 15 19.5469L14.9531 22.8282C14.9531 23.1094 15.0937 23.3907 15.7031 23.3907Z" fill="#222425"/>
</g>
<defs>
<clipPath id="clip0_323_242">
<rect width="24" height="24" rx="3" fill="white"/>
</clipPath>
</defs>
</svg>
