<svg width="24" height="24" viewBox="0 0 24 24" fill="none" xmlns="http://www.w3.org/2000/svg">
<g clip-path="url(#clip0_323_234)">
<path fill-rule="evenodd" clip-rule="evenodd" d="M0 0V24H24V0H0ZM20.2979 5.31059L17.4781 18.8738C17.4117 19.194 17.0362 19.3391 16.7713 19.1466L12.922 16.352C12.6884 16.1823 12.3697 16.1913 12.146 16.3738L10.0119 18.1134C9.7642 18.316 9.39096 18.2031 9.29612 17.898L7.81424 13.1323L3.98569 11.7034C3.59678 11.5577 3.59346 11.0087 3.98126 10.8593L19.6937 4.79784C20.0268 4.66903 20.3705 4.96083 20.2979 5.31059Z" fill="#E2E5E9"/>
<path fill-rule="evenodd" clip-rule="evenodd" d="M16.5398 7.7633L9.05742 12.3717C8.77063 12.5486 8.63565 12.895 8.72817 13.2192L9.53715 16.0618C9.5947 16.2632 9.88692 16.2426 9.91493 16.0345L10.1252 14.4757C10.1649 14.1822 10.3048 13.9117 10.5219 13.7097L16.697 7.96965C16.8126 7.86257 16.6742 7.68075 16.5398 7.7633Z" fill="#E2E5E9"/>
</g>
<defs>
<clipPath id="clip0_323_234">
<rect width="24" height="24" rx="3" fill="white"/>
</clipPath>
</defs>
</svg>
