<svg width="25" height="25" viewBox="0 0 25 25" fill="none" xmlns="http://www.w3.org/2000/svg">
<path d="M18.4555 9.61942L15.3606 6.54447L16.9231 5.00203C17.2049 4.72024 17.5427 4.57934 17.9367 4.57934C18.3307 4.57934 18.6685 4.72024 18.9503 5.00203L19.998 6.06973C20.2798 6.35152 20.4207 6.6894 20.4207 7.08335C20.4207 7.47731 20.2798 7.80851 19.998 8.07695L18.4555 9.61942ZM4.02643 20.9536V17.8325L8.91826 12.9407L3.30328 7.29971L6.89302 3.69794L12.5601 9.34497L15.3606 6.54447L18.4555 9.61942L15.6751 12.4399L21.3021 18.107L17.7063 21.6707L12.0453 16.0557L7.14745 20.9536H4.02643ZM9.49719 12.3818L11.9812 9.89786L9.69953 7.59617L8.46956 8.84617L7.89664 8.27325L9.12659 7.04328L6.89904 4.81572L4.41508 7.29971L9.49719 12.3818ZM17.6743 20.5649L20.1583 18.081L17.9307 15.8534L16.7007 17.0834L16.1278 16.5104L17.3578 15.2805L15.0761 12.9988L12.5922 15.4828L17.6743 20.5649ZM4.82774 20.1523H6.79086L17.2977 9.64546L15.3345 7.68231L4.82774 18.1891V20.1523Z" fill="#E2E5E9" fill-opacity="0.3"/>
</svg>
