<svg width="21" height="21" viewBox="0 0 21 21" fill="none" xmlns="http://www.w3.org/2000/svg">
<path d="M15.9031 19.25C15.2104 19.25 14.6216 19.0069 14.1367 18.5206C13.6518 18.0342 13.4094 17.4437 13.4094 16.749C13.4094 16.6518 13.4203 16.5328 13.4422 16.3922C13.4641 16.2516 13.4969 16.125 13.5406 16.0125L6.9125 12.1625C6.69375 12.4104 6.42396 12.6109 6.10312 12.7641C5.78229 12.9172 5.45417 12.9937 5.11875 12.9937C4.42604 12.9937 3.83724 12.7513 3.35234 12.2664C2.86745 11.7815 2.625 11.1927 2.625 10.5C2.625 9.80729 2.86745 9.21849 3.35234 8.73359C3.83724 8.2487 4.42604 8.00625 5.11875 8.00625C5.45417 8.00625 5.775 8.07188 6.08125 8.20312C6.3875 8.33437 6.66458 8.52396 6.9125 8.77187L13.5406 4.96563C13.4969 4.86251 13.4641 4.74649 13.4422 4.61757C13.4203 4.48867 13.4094 4.36406 13.4094 4.24375C13.4094 3.55104 13.6518 2.96224 14.1367 2.47734C14.6216 1.99245 15.2104 1.75 15.9031 1.75C16.5958 1.75 17.1846 1.99245 17.6695 2.47734C18.1544 2.96224 18.3969 3.55104 18.3969 4.24375C18.3969 4.93646 18.1544 5.52526 17.6695 6.01016C17.1846 6.49505 16.5958 6.7375 15.9031 6.7375C15.5625 6.7375 15.2368 6.68281 14.9258 6.57344C14.6149 6.46406 14.35 6.28542 14.1312 6.0375L7.50312 9.7125C7.53229 9.82917 7.55781 9.96406 7.57969 10.1172C7.60156 10.2703 7.6125 10.3997 7.6125 10.5053C7.6125 10.6109 7.60156 10.7203 7.57969 10.8334C7.55781 10.9465 7.53229 11.0615 7.50312 11.1781L14.1312 14.9406C14.35 14.7365 14.6052 14.5724 14.8969 14.4484C15.1885 14.3245 15.524 14.2625 15.9031 14.2625C16.5958 14.2625 17.1846 14.5049 17.6695 14.9898C18.1544 15.4747 18.3969 16.0635 18.3969 16.7562C18.3969 17.449 18.1544 18.0378 17.6695 18.5227C17.1846 19.0076 16.5958 19.25 15.9031 19.25ZM15.9039 5.425C16.2388 5.425 16.5193 5.31172 16.7453 5.08517C16.9714 4.85862 17.0844 4.57789 17.0844 4.24298C17.0844 3.90808 16.9711 3.6276 16.7445 3.40156C16.518 3.17552 16.2373 3.0625 15.9024 3.0625C15.5675 3.0625 15.287 3.17578 15.0609 3.40233C14.8349 3.62888 14.7219 3.90961 14.7219 4.24452C14.7219 4.57942 14.8352 4.8599 15.0617 5.08594C15.2883 5.31198 15.569 5.425 15.9039 5.425ZM5.11952 11.6812C5.45442 11.6812 5.7349 11.568 5.96094 11.3414C6.18698 11.1149 6.3 10.8341 6.3 10.4992C6.3 10.1643 6.18672 9.88385 5.96017 9.65781C5.73362 9.43177 5.45289 9.31875 5.11798 9.31875C4.78308 9.31875 4.5026 9.43203 4.27656 9.65858C4.05052 9.88513 3.9375 10.1659 3.9375 10.5008C3.9375 10.8357 4.05078 11.1161 4.27733 11.3422C4.50388 11.5682 4.78461 11.6812 5.11952 11.6812ZM15.9039 17.9375C16.2388 17.9375 16.5193 17.8242 16.7453 17.5977C16.9714 17.3711 17.0844 17.0904 17.0844 16.7555C17.0844 16.4206 16.9711 16.1401 16.7445 15.9141C16.518 15.688 16.2373 15.575 15.9024 15.575C15.5675 15.575 15.287 15.6883 15.0609 15.9148C14.8349 16.1414 14.7219 16.4221 14.7219 16.757C14.7219 17.0919 14.8352 17.3724 15.0617 17.5984C15.2883 17.8245 15.569 17.9375 15.9039 17.9375Z" fill="#E2E5E9" fill-opacity="0.3"/>
</svg>
